<svg version="1.1" id="Layer_1" xmlns="http://www.w3.org/2000/svg" xmlns:xlink="http://www.w3.org/1999/xlink" x="0px" y="0px"
	 width="100%" viewBox="0 0 800 736" enable-background="new 0 0 800 736" xml:space="preserve">
<path fill="#000000" opacity="1.000000" stroke="none" 
	d="
M547.346558,668.495483 
	C517.231689,677.403381 486.931488,683.502686 456.168274,687.099365 
	C432.670166,689.846680 409.038483,691.000122 385.374420,690.123840 
	C328.771912,688.028137 273.860199,677.076904 220.511963,658.144287 
	C176.871796,642.656982 134.985153,623.561829 96.665359,597.282593 
	C75.869965,583.021423 55.806709,567.793518 40.061642,547.790100 
	C26.648689,530.749512 19.319061,511.423096 18.460302,489.497833 
	C18.128962,481.038239 17.522682,472.574188 17.708921,464.112213 
	C17.968254,452.329041 18.932812,440.499603 22.105125,429.169281 
	C24.924326,419.100159 29.417675,409.517029 35.440964,400.835480 
	C41.232777,392.487579 47.208126,384.266388 53.143478,376.018768 
	C65.909225,358.279846 82.777412,346.542786 104.144760,341.600983 
	C107.901299,340.732178 110.181206,338.976807 111.703697,335.377533 
	C120.526764,314.519012 129.537415,293.739777 138.496292,272.938782 
	C139.299149,271.074707 139.745209,269.177399 139.664459,267.125153 
	C137.646088,215.825989 160.590424,175.117096 195.206070,140.139114 
	C230.294876,104.683006 274.024414,84.475113 321.991241,72.809761 
	C350.108490,65.971756 378.711823,63.055901 407.605988,63.836185 
	C455.472351,65.128815 501.357605,75.085930 544.241272,96.947899 
	C581.148682,115.763206 612.496460,141.108231 634.254395,176.905853 
	C645.863037,196.005142 656.125977,215.837433 658.884766,238.573593 
	C659.989075,247.675293 660.626770,256.797272 660.306763,265.965118 
	C660.205566,268.863068 660.751282,271.547394 661.904419,274.204224 
	C670.655762,294.366028 679.432678,314.517578 688.004089,334.755981 
	C689.647827,338.637146 691.900696,340.710266 696.130432,341.716431 
	C715.949402,346.430969 732.282837,356.821442 744.572998,373.148315 
	C751.685059,382.596375 758.638489,392.184906 765.212036,402.012115 
	C774.380493,415.718475 778.297974,431.101288 779.491760,447.492432 
	C780.327820,458.972382 780.699463,470.443390 780.219971,481.883301 
	C779.250549,505.007233 775.964233,527.645203 760.996521,546.635071 
	C747.363220,563.932129 730.518250,577.763672 712.794678,590.621338 
	C668.521301,622.739807 619.286743,644.791382 567.751770,662.171753 
	C561.133362,664.403809 554.410461,666.326172 547.346558,668.495483 
M276.128754,625.215942 
	C306.408508,633.142395 337.040405,638.916382 368.341156,640.953430 
	C395.649017,642.730530 422.916229,642.522827 450.092041,639.408264 
	C475.699860,636.473450 500.955627,631.520569 525.817627,624.630554 
	C567.533203,613.069763 607.537109,597.268127 645.585205,576.567810 
	C648.333801,575.072388 649.733093,573.282288 649.714905,569.925598 
	C649.586792,546.267517 649.783630,522.607117 649.556213,498.950531 
	C649.491333,492.199829 645.876526,486.535828 642.577576,480.923950 
	C640.275269,481.858154 639.614563,483.464661 638.742188,484.839447 
	C624.634216,507.071777 604.073059,519.761658 578.746277,525.332397 
	C556.220337,530.287109 533.560181,530.070007 510.740234,527.475891 
	C474.523956,523.358887 443.769623,509.549866 422.064636,479.057251 
	C420.152039,476.370270 418.003052,475.147919 414.593628,475.224548 
	C405.101746,475.437958 395.595764,475.484558 386.107758,475.193329 
	C382.073761,475.069489 379.633148,476.666992 377.421844,479.769012 
	C361.248627,502.457001 339.154205,516.554138 312.391998,523.233032 
	C286.480164,529.699707 260.196442,530.939270 233.641388,527.505920 
	C202.609619,523.493652 177.159271,510.546814 160.261353,483.243042 
	C159.673218,482.292725 159.117111,481.145599 157.147522,481.095276 
	C154.208313,487.452484 150.218582,493.464233 150.284821,501.249603 
	C150.476166,523.740479 150.448593,546.234802 150.262405,568.725769 
	C150.229156,572.741028 151.449310,575.019104 155.029175,576.948853 
	C193.301468,597.579407 233.447861,613.463806 276.128754,625.215942 
M524.430908,310.263580 
	C512.501465,307.647705 500.431000,306.963318 488.242004,307.272369 
	C465.267517,307.854858 450.994751,319.040680 446.370056,341.665497 
	C440.268616,371.514679 442.166840,401.191711 450.606689,430.390747 
	C457.807037,455.301514 474.687012,470.429382 499.538910,476.699280 
	C520.899475,482.088348 542.611877,482.898804 564.316711,479.365234 
	C586.508362,475.752441 600.951294,463.368408 606.070251,440.812500 
	C610.575867,420.959839 613.305908,401.074860 611.844910,380.599762 
	C610.152771,356.887085 599.584717,339.317383 578.583618,327.965454 
	C561.839661,318.914703 543.765442,314.057007 524.430908,310.263580 
M339.208008,451.709930 
	C340.782959,448.967255 342.483948,446.288513 343.911774,443.471252 
	C351.566437,428.367645 354.565430,412.093903 355.916046,395.400635 
	C357.397217,377.094025 357.724213,358.856232 353.636047,340.775116 
	C349.374512,321.927246 338.439514,311.297302 319.687164,308.237671 
	C306.723297,306.122467 293.785370,307.088745 280.947418,309.325470 
	C258.893738,313.167816 237.319153,318.495575 217.805511,330.150024 
	C203.482620,338.704346 194.020126,350.804230 190.299362,367.133759 
	C187.507874,379.384949 187.046951,391.759644 188.204941,404.305756 
	C189.475357,418.069916 191.242142,431.673828 195.091888,445.006866 
	C200.562500,463.953583 213.348816,474.883636 232.190674,478.583496 
	C256.375488,483.332458 280.598114,482.477386 304.245514,475.500366 
	C317.952454,471.456207 330.384460,464.652374 339.208008,451.709930 
M377.335510,402.239319 
	C380.626617,404.729950 384.228485,405.197418 388.188446,404.154663 
	C396.070984,402.079010 403.966522,402.396484 411.877563,404.162842 
	C418.879364,405.726166 425.293030,402.336334 426.569092,396.555267 
	C428.093994,389.646942 424.259705,384.194214 416.669189,382.401978 
	C405.484192,379.761078 394.320404,379.805664 383.138794,382.460297 
	C373.163422,384.828583 370.181030,393.782684 377.335510,402.239319 
z"/>
</svg>